HIERARCHY
ROOT Hips
{
	OFFSET 0.000000 0.000000 0.000000 
	CHANNELS 6 Xposition Yposition Zposition Zrotation Yrotation Xrotation
	JOINT LeftUpLeg
	{
		OFFSET 1.363060 -1.794630 0.839290 
		CHANNELS 3 Zrotation Yrotation Xrotation
		JOINT LeftLeg
		{
			OFFSET 2.448110 -6.726130 0.000000 
			CHANNELS 3 Zrotation Yrotation Xrotation
			JOINT LeftFoot
			{
				OFFSET 2.562200 -7.039590 0.000000 
				CHANNELS 3 Zrotation Yrotation Xrotation
				JOINT LeftToeBase
				{
					OFFSET 0.157640 -0.433110 2.322550 
					CHANNELS 3 Zrotation Yrotation Xrotation
					End Site
					{
						OFFSET 0.000000 0.000000 0.000000 
					}
				}
			}
		}
	}
	JOINT RightUpLeg
	{
		OFFSET -1.305520 -1.794630 0.839290 
		CHANNELS 3 Zrotation Yrotation Xrotation
		JOINT RightLeg
		{
			OFFSET -2.542530 -6.985550 0.000000 
			CHANNELS 3 Zrotation Yrotation Xrotation
			JOINT RightFoot
			{
				OFFSET -2.568260 -7.056230 0.000000 
				CHANNELS 3 Zrotation Yrotation Xrotation
				JOINT RightToeBase
				{
					OFFSET -0.164730 -0.452590 2.363150 
					CHANNELS 3 Zrotation Yrotation Xrotation
					End Site
					{
						OFFSET 0.000000 0.000000 0.000000 
					}
				}
			}
		}
	}
	JOINT Spine
	{
		OFFSET 0.028270 2.035590 -0.193380 
		CHANNELS 3 Zrotation Yrotation Xrotation
		JOINT Spine1
		{
			OFFSET 0.056720 2.048850 -0.042750 
			CHANNELS 3 Zrotation Yrotation Xrotation
			JOINT Neck1
			{
				OFFSET -0.054170 1.746240 0.172020 
				CHANNELS 3 Zrotation Yrotation Xrotation
				JOINT Head
				{
					OFFSET 0.104070 1.761360 -0.123970 
					CHANNELS 3 Zrotation Yrotation Xrotation
					End Site
					{
						OFFSET 0.000000 0.000000 0.000000 
					}
				}
			}
			JOINT LeftArm
			{
				OFFSET 3.362410 1.200890 -0.311210 
				CHANNELS 3 Zrotation Yrotation Xrotation
				JOINT LeftForeArm
				{
					OFFSET 4.983000 -0.000000 -0.000000 
					CHANNELS 3 Zrotation Yrotation Xrotation
					JOINT LeftHand
					{
						OFFSET 3.483560 -0.000000 -0.000000 
						CHANNELS 3 Zrotation Yrotation Xrotation
						JOINT LeftHandIndex1
						{
							OFFSET 0.715260 -0.000000 -0.000000 
							CHANNELS 3 Zrotation Yrotation Xrotation
							End Site
							{
								OFFSET 0.000000 0.000000 0.000000 
							}
						}
					}
				}
			}
			JOINT RightArm
			{
				OFFSET -3.136600 1.374050 -0.404650 
				CHANNELS 3 Zrotation Yrotation Xrotation
				JOINT RightForeArm
				{
					OFFSET -5.241900 -0.000000 -0.000000 
					CHANNELS 3 Zrotation Yrotation Xrotation
					JOINT RightHand
					{
						OFFSET -3.444170 -0.000000 -0.000000 
						CHANNELS 3 Zrotation Yrotation Xrotation
						JOINT RightHandIndex1
						{
							OFFSET -0.622530 -0.000000 -0.000000 
							CHANNELS 3 Zrotation Yrotation Xrotation
							End Site
							{
								OFFSET 0.000000 0.000000 0.000000 
							}
						}
					}
				}
			}
		}
	}
}
MOTION
Frames: 18
Frame Time: 0.041667
0.476946 17.136368 11.205679 -4.841877 -6.933465 2.764165 -10.649225 -10.513743 -32.405831 -0.314751 7.124813 18.978234 -0.684773 5.866720 7.159807 0.124200 -2.272000 -6.257900 31.109494 1.981485 19.189980 -0.873283 -5.175740 19.079353 -0.625894 2.950271 1.999890 -0.202500 2.897700 -7.994200 1.171868 3.761263 -1.499488 1.172898 2.502041 -1.813833 3.258786 -1.897015 14.129555 2.778500 -1.407700 9.618300 -81.271399 14.522069 21.979749 8.936022 -18.201683 -1.685125 -0.626029 -3.401646 15.012466 -7.125000 0.000000 0.000000 77.557020 7.266335 18.432709 -19.751382 28.730498 -6.764059 1.070967 -0.245562 -0.265347 7.125000 0.000000 0.000000 
0.481132 17.135449 11.496012 -4.368543 -6.758056 2.510031 -11.639864 -10.423647 -32.217586 -0.157190 7.526852 20.271462 -0.239131 4.391365 8.981266 0.178300 -2.719800 -7.499700 30.457654 1.667610 19.204281 -1.072088 -5.632486 20.464845 -0.648077 3.222169 3.798373 -0.211800 2.962600 -8.174700 1.114405 3.752866 -1.452990 1.238449 2.497133 -1.691478 3.267229 -2.069498 14.062098 2.749300 -1.479100 9.541300 -81.293658 14.529102 21.388630 8.648522 -17.673192 -1.547339 -0.552270 -3.438827 15.232118 -7.125000 0.000000 0.000000 77.581275 7.276395 17.968323 -19.865401 28.868258 -6.825873 1.103404 -0.256354 -0.430125 7.125000 0.000000 0.000000 
0.489094 17.151477 11.807783 -4.071136 -6.740423 2.197842 -12.134191 -10.731689 -31.909870 0.021140 7.925240 21.510762 0.046982 3.732582 11.480419 0.244300 -3.180900 -8.782900 29.917495 1.383813 19.198854 -1.312740 -6.154420 22.072584 -0.689180 3.527156 5.965530 -0.168200 2.641800 -7.283000 1.111085 3.768133 -1.443700 1.348852 2.502698 -1.705080 3.286776 -2.136791 14.222339 2.769200 -1.524700 9.579800 -81.487110 14.734630 20.633691 8.410524 -17.222562 -1.426914 -0.527997 -3.475762 15.557445 -7.125000 0.000000 0.000000 77.496606 6.848392 17.684629 -20.081797 29.150565 -6.962573 1.128831 -0.244716 -0.643062 7.125000 0.000000 0.000000 
0.502468 17.169546 12.105261 -3.844503 -6.530617 1.895721 -12.428947 -11.293874 -31.671504 0.214666 8.328149 22.755507 0.257693 3.234348 13.200515 0.293100 -3.481300 -9.621700 29.499635 1.069190 18.848097 -1.607291 -6.752498 23.919907 -0.697604 3.431927 8.800569 -0.100400 2.043600 -5.626300 1.076687 3.703909 -1.535676 1.251282 2.470735 -2.151512 3.306063 -2.144334 14.454208 2.781400 -1.540000 9.667400 -81.489568 15.152088 19.948348 8.159368 -16.749321 -1.311316 -0.583824 -3.466468 15.811529 -7.125000 0.000000 0.000000 77.501789 6.303577 17.406854 -20.140083 29.217294 -6.989735 1.162875 -0.237994 -0.748052 7.125000 0.000000 0.000000 
0.518291 17.174446 12.393450 -3.414015 -6.291344 1.685781 -13.096733 -11.573311 -31.427138 0.397291 8.698535 23.979172 0.536176 2.215678 14.361470 0.222600 -3.037200 -8.382400 28.851955 0.866171 18.102802 -1.984834 -7.467241 26.129411 -0.735946 3.115114 12.032039 -0.070800 1.717200 -4.724700 0.976423 3.682626 -1.621924 1.064048 2.459662 -2.526956 3.363357 -2.221022 14.592821 2.783900 -1.568800 9.727900 -81.311394 15.425569 19.375528 7.905647 -16.272891 -1.204837 -0.640235 -3.435225 16.134056 -7.125000 0.000000 0.000000 77.727862 5.954971 16.677894 -20.080241 29.131061 -6.939704 1.180693 -0.258711 -0.752794 7.125000 0.000000 0.000000 
0.531664 17.175467 12.686744 -2.873997 -6.119155 1.514499 -13.957001 -11.603788 -31.169441 0.571485 9.037533 25.139921 0.823029 1.118487 15.594570 0.033100 -1.174300 -3.228500 28.134899 0.883482 17.048393 -2.480054 -8.323445 28.799781 -0.815979 2.521813 15.460543 -0.069200 1.697700 -4.670900 0.886107 3.668991 -1.636500 1.008633 2.449398 -2.566454 3.476047 -2.338921 14.568002 2.847100 -1.621000 9.689700 -81.222932 15.379874 18.658838 7.662118 -15.791284 -1.090309 -0.631731 -3.460015 16.688621 -7.125000 0.000000 0.000000 77.938708 5.582169 15.911530 -20.168823 29.249164 -6.997844 1.175081 -0.251766 -1.122233 7.125000 0.000000 0.000000 
0.539423 17.179857 12.969828 -2.167523 -5.888718 1.332914 -15.153402 -11.359706 -30.989831 0.769085 9.390189 26.351711 0.985377 0.204117 15.797961 0.000700 -0.172900 -0.474900 27.292300 1.000122 15.695254 -3.072970 -9.249633 31.755720 -0.983649 1.924699 18.950083 -0.064000 1.632800 -4.492000 0.775946 3.605990 -1.647829 1.021420 2.414659 -2.597869 3.633370 -2.425209 14.519704 2.939500 -1.657400 9.593300 -81.144947 15.211755 17.421669 7.405224 -15.271464 -0.973484 -0.588761 -3.485332 17.710830 -7.125000 0.000000 0.000000 78.205876 5.180634 15.213381 -20.219615 29.316225 -7.031513 1.167947 -0.202826 -1.354314 7.125000 0.000000 0.000000 
0.547998 17.185471 13.244235 -1.502234 -5.698777 1.090915 -16.427968 -10.963617 -30.685109 1.003520 9.750857 27.586689 0.955138 -0.112367 14.900812 0.004900 -0.452600 -1.243600 26.456276 1.206135 14.303117 -3.725398 -10.169608 34.796960 -1.265741 1.527420 22.498921 -0.015200 0.794800 -2.184200 0.650494 3.588046 -1.700021 0.959119 2.401520 -2.851830 3.895169 -2.453151 14.744056 3.084300 -1.665600 9.674900 -80.964865 15.324377 16.451305 7.263409 -15.002573 -0.918566 -0.646854 -3.455705 18.225015 -7.125000 0.000000 0.000000 78.504342 4.667213 14.579472 -20.181603 29.261352 -6.999358 1.181301 -0.147993 -1.567878 7.125000 0.000000 0.000000 
0.554633 17.203336 13.528545 -1.175071 -5.811135 0.787331 -17.331686 -10.243669 -30.258428 1.229707 10.075837 28.735848 0.958244 -0.489613 14.191812 0.005200 -0.466500 -1.281800 26.021106 1.703130 13.040930 -4.448793 -11.073271 37.852432 -1.621982 0.653766 26.396275 -0.011300 -0.685300 1.883100 0.582495 3.703518 -1.688898 0.896013 2.449307 -2.942612 4.155412 -2.529257 14.937955 3.246600 -1.701500 9.821900 -80.901691 15.404096 15.651604 7.251678 -14.973860 -0.898701 -0.684395 -3.480019 18.560318 -7.125000 0.000000 0.000000 78.716863 4.259055 14.006757 -20.149630 29.223962 -6.975191 1.189934 -0.113755 -1.891896 7.125000 0.000000 0.000000 
0.563311 17.233248 13.812753 -1.079364 -5.958111 0.487825 -17.909794 -9.654460 -29.710806 1.425473 10.342725 29.734777 1.042938 -1.200530 13.718493 0.003800 0.398100 1.094000 25.883279 2.329597 11.744975 -5.261930 -11.958103 40.883770 -2.040664 -1.076518 30.504487 -0.169600 -2.653000 7.314000 0.567820 3.810700 -1.612556 0.814907 2.489517 -2.797341 4.113482 -2.578695 14.966350 3.233700 -1.729400 9.910500 -80.956247 15.015954 14.807630 7.166019 -14.745372 -0.821634 -0.689762 -3.577875 18.865910 -7.125000 0.000000 0.000000 78.855221 4.116977 13.446510 -20.038933 29.090832 -6.894950 1.220461 -0.110904 -2.293530 7.125000 0.000000 0.000000 
0.576072 17.265711 14.090631 -0.991984 -6.135139 0.210616 -18.488575 -9.151279 -29.037791 1.601635 10.548979 30.545831 1.039747 -1.479200 13.029447 0.044000 1.354000 3.723500 25.731286 2.966391 10.308922 -6.121196 -12.806316 43.969501 -2.564183 -2.378267 34.173163 -0.250800 -3.222100 8.897800 0.548685 3.888236 -1.594858 0.667132 2.518268 -2.909547 3.940232 -2.484997 14.792448 3.141300 -1.686900 9.795900 -81.024535 14.760543 13.579051 7.057916 -14.488842 -0.774530 -0.735797 -3.552523 19.432214 -7.125000 0.000000 0.000000 79.026443 3.696196 13.262821 -19.955936 28.992124 -6.832808 1.262238 -0.120141 -2.671437 7.125000 0.000000 0.000000 
0.593630 17.295316 14.371674 -0.684485 -6.250465 -0.089355 -19.272827 -8.945832 -27.971920 1.769582 10.697090 31.200708 0.904551 -1.128125 12.013535 0.074400 1.760000 4.842800 25.252275 3.466630 8.786454 -7.006298 -13.610321 47.126730 -3.028917 -3.213096 36.780805 -0.242300 -3.167400 8.745200 0.499981 3.911111 -1.566917 0.569948 2.520827 -2.975217 3.786196 -2.362799 14.765163 3.090600 -1.646100 9.746400 -81.101335 14.949868 13.206824 7.250093 -14.873727 -0.849346 -0.749230 -3.547542 19.306614 -7.125000 0.000000 0.000000 79.168491 3.349023 13.175773 -19.824789 28.839918 -6.748414 1.279153 -0.112531 -2.865168 7.125000 0.000000 0.000000 
0.603124 17.319306 14.631891 -0.423861 -6.349264 -0.319599 -19.878797 -8.965524 -26.876297 1.902558 10.792080 31.677344 0.758794 -0.720173 10.844900 0.069900 1.705500 4.692600 24.935315 4.016005 7.062967 -7.916143 -14.369317 50.354516 -3.113036 -4.091084 37.288087 -0.228700 -3.078300 8.496800 0.462408 3.933008 -1.506301 0.553241 2.520918 -2.912656 3.739362 -2.241791 14.848221 3.098100 -1.601600 9.821100 -81.183746 14.873703 13.120310 7.446529 -15.238684 -0.918712 -0.682177 -3.589587 18.639361 -7.125000 0.000000 0.000000 79.315941 3.305071 12.915632 -19.621506 28.591884 -6.624313 1.257471 -0.096369 -2.824750 7.125000 0.000000 0.000000 
0.604247 17.337375 14.885371 -0.347265 -6.580127 -0.427026 -20.171637 -9.051778 -25.910132 1.995741 10.842529 31.979956 0.621894 -0.298393 9.752163 0.086600 1.897900 5.223700 24.937079 4.664470 5.247211 -8.816851 -15.060036 53.562424 -2.738861 -4.957140 35.521153 -0.183500 -2.758700 7.607700 0.462787 4.016765 -1.445066 0.619025 2.553112 -2.791812 3.576128 -2.193985 14.740401 3.022600 -1.587700 9.768800 -81.277070 14.624769 13.040607 7.585291 -15.493599 -0.980337 -0.674122 -3.574041 18.071267 -7.125000 0.000000 0.000000 79.374639 3.299740 12.871788 -19.322923 28.233598 -6.443174 1.243863 -0.113653 -2.962850 7.125000 0.000000 0.000000 
0.613129 17.362591 15.155388 0.176231 -6.711764 -0.555977 -21.057723 -9.179470 -24.757997 2.066581 10.847736 32.174500 0.475151 0.164188 8.668358 0.100100 2.040000 5.616300 24.243554 5.058688 3.350261 -9.672029 -15.677618 56.662667 -2.277044 -5.201924 32.968964 -0.175100 -2.695400 7.431800 0.435955 3.934123 -1.373735 0.839015 2.504208 -2.549919 3.397517 -2.062730 14.595272 2.964400 -1.543500 9.634100 -81.494029 14.416164 13.080884 7.802575 -15.896974 -1.049874 -0.658824 -3.637434 17.301804 -7.125000 0.000000 0.000000 79.280947 3.357046 13.109069 -18.862734 27.687070 -6.171893 1.224452 -0.145440 -2.931484 7.125000 0.000000 0.000000 
0.621908 17.393931 15.422650 0.881876 -6.635459 -0.701794 -22.195133 -9.360370 -23.544561 2.113909 10.820850 32.284500 0.381183 0.381655 7.542968 0.060800 1.591100 4.377000 23.259344 5.196762 1.275635 -10.479215 -16.225522 59.579713 -1.901756 -5.008247 30.507417 -0.309100 -3.574100 9.881400 0.400773 3.722950 -1.337017 1.130494 2.390848 -2.404392 3.374639 -1.776851 14.670342 3.001600 -1.426500 9.630400 -81.712483 13.929422 12.755361 7.753405 -15.755659 -1.009793 -0.713745 -3.666978 16.618786 -7.125000 0.000000 0.000000 79.153731 3.440737 13.510595 -18.354039 27.051473 -5.867963 1.215586 -0.139819 -2.725749 7.125000 0.000000 0.000000 
0.621296 17.411082 15.671025 1.342557 -6.493070 -0.746251 -22.994562 -9.526544 -22.451987 2.122781 10.752359 32.224090 0.283488 0.676551 6.564673 0.024900 1.019000 2.801000 22.634247 5.362381 -0.980411 -11.250774 -16.710110 62.273261 -1.528771 -4.993882 28.005038 -0.446200 -4.285900 11.882400 0.363729 3.556482 -1.382550 1.292020 2.302766 -2.561149 3.415353 -1.612017 14.768443 3.075000 -1.368700 9.671100 -81.667100 13.505026 12.750235 7.612525 -15.455850 -0.965263 -0.802496 -3.598717 15.810835 -7.125000 0.000000 0.000000 79.197449 3.207491 13.667509 -18.029771 26.648626 -5.688179 1.167578 -0.147626 -2.070131 7.125000 0.000000 0.000000 
0.622214 17.425067 15.915011 1.748875 -6.297310 -0.720639 -23.725003 -9.729773 -21.376768 2.119327 10.670836 32.105096 0.169717 1.076763 5.731795 0.015800 0.812200 2.232300 22.086816 5.516588 -3.217461 -11.950573 -17.123546 64.651749 -1.144732 -5.142427 25.373687 -0.458000 -4.341200 12.038800 0.331135 3.341013 -1.419334 1.432816 2.190385 -2.648601 3.396916 -1.506806 14.841905 3.100700 -1.336400 9.682600 -81.644105 13.207793 12.829304 7.643546 -15.521026 -1.021947 -0.934516 -3.418759 15.390704 -7.125000 0.000000 0.000000 79.378138 2.809876 13.638275 -17.865644 26.464463 -5.612077 1.104266 -0.180808 -0.951191 7.125000 0.000000 0.000000 
